<svg xmlns="http://www.w3.org/2000/svg" width="164.692" height="39.605" viewBox="0 0 164.692 39.605">
  <g id="LOGO_TROTALO" data-name="LOGO TROTALO" transform="translate(-173.675 -405.596)">
    <g id="Grupo_7" data-name="Grupo 7" transform="translate(173.675 405.596)">
      <path id="Trazado_15" data-name="Trazado 15" d="M174.561,422.42a2.646,2.646,0,0,0-.323.364,19.876,19.876,0,0,1,17.94-17.188,2.653,2.653,0,0,0-.377.307Z" transform="translate(-174.111 -405.596)" fill="#13435e"/>
      <path id="Trazado_16" data-name="Trazado 16" d="M289.4,424.18a3.5,3.5,0,0,0-.354-.433l-16.852-17.589a4.144,4.144,0,0,0-.411-.366A19.891,19.891,0,0,1,289.4,424.18Z" transform="translate(-249.728 -405.748)" fill="#219ebc"/>
      <path id="Trazado_17" data-name="Trazado 17" d="M191.307,518.176a19.887,19.887,0,0,1-17.632-18.388,4.129,4.129,0,0,0,.348.426L190.875,517.8A3.067,3.067,0,0,0,191.307,518.176Z" transform="translate(-173.675 -478.615)" fill="#219ebc"/>
      <path id="Trazado_18" data-name="Trazado 18" d="M287.372,505.638a2.406,2.406,0,0,0,.331-.377,19.878,19.878,0,0,1-17.947,17.2,3.351,3.351,0,0,0,.384-.314Z" transform="translate(-248.158 -482.857)" fill="#13435e"/>
      <rect id="Rectángulo_16" data-name="Rectángulo 16" width="19.589" height="19.902" rx="1" transform="matrix(0.722, -0.692, 0.692, 0.722, 6.158, 19.135)" fill="#ffb703"/>
      <rect id="Rectángulo_17" data-name="Rectángulo 17" width="8.437" height="8.572" rx="1" transform="matrix(0.722, -0.692, 0.692, 0.722, 14.104, 19.368)" fill="#f08b27"/>
    </g>
    <g id="Grupo_9" data-name="Grupo 9" transform="translate(219.081 412.775)">
      <g id="Grupo_8" data-name="Grupo 8" transform="translate(0 0)">
        <path id="Trazado_19" data-name="Trazado 19" d="M394.508,445.39a.971.971,0,0,1-.72.262h-5.953V464.1a.906.906,0,0,1-.981.981h-3.238a.905.905,0,0,1-.981-.981V445.652h-5.986a.905.905,0,0,1-.981-.981v-2.518a.905.905,0,0,1,.981-.981h17.139a.905.905,0,0,1,.981.981v2.518A.973.973,0,0,1,394.508,445.39Z" transform="translate(-375.668 -440.353)" fill="#13435e"/>
        <path id="Trazado_20" data-name="Trazado 20" d="M481.007,466.414a1.02,1.02,0,0,1,.262.752v2.78q0,.883-.981.981a6.382,6.382,0,0,0-2.093.507,5.5,5.5,0,0,0-1.9,1.358,5.313,5.313,0,0,0-1.177,3.729v6.967a.905.905,0,0,1-.981.981h-2.911a.905.905,0,0,1-.981-.981V467.461a.905.905,0,0,1,.981-.981h2.911a.905.905,0,0,1,.981.981v1.406a6.294,6.294,0,0,1,2.322-1.9,8.284,8.284,0,0,1,2.846-.785A.88.88,0,0,1,481.007,466.414Z" transform="translate(-448.986 -459.741)" fill="#13435e"/>
        <path id="Trazado_21" data-name="Trazado 21" d="M528.649,483.535a9.534,9.534,0,0,1-3.549-3.418,9.073,9.073,0,0,1,0-9.387,9.629,9.629,0,0,1,3.565-3.435,10.044,10.044,0,0,1,13.378,3.435,8.968,8.968,0,0,1-.016,9.355,10.041,10.041,0,0,1-13.378,3.451Zm2.4-12.527a4.868,4.868,0,0,0-1.8,1.816,5.588,5.588,0,0,0-.017,5.217,4.6,4.6,0,0,0,1.783,1.815,4.879,4.879,0,0,0,6.8-1.832,5.419,5.419,0,0,0,.654-2.617,5.245,5.245,0,0,0-.638-2.568,4.839,4.839,0,0,0-1.782-1.848,4.989,4.989,0,0,0-2.519-.654A4.834,4.834,0,0,0,531.053,471.007Z" transform="translate(-490.495 -459.641)" fill="#13435e"/>
        <path id="Trazado_22" data-name="Trazado 22" d="M628.312,461.195a3.69,3.69,0,0,0,.442,2.011,1.994,1.994,0,0,0,1.783.671h.229q1.013,0,1.014.949v2.159a1.07,1.07,0,0,1-.245.736.99.99,0,0,1-.7.311q-.426.032-1.243.033a12.91,12.91,0,0,1-3.435-.36,3.658,3.658,0,0,1-1.963-1.308,4.613,4.613,0,0,1-.719-2.813V453.9h-1.21a.906.906,0,0,1-.981-.981V450.6a.906.906,0,0,1,.981-.981h1.21v-3.827a.906.906,0,0,1,.981-.981h2.878a.906.906,0,0,1,.981.981v3.827h2.617a.905.905,0,0,1,.981.981v2.323a.905.905,0,0,1-.981.981h-2.617Z" transform="translate(-566.068 -443.172)" fill="#13435e"/>
        <path id="Trazado_23" data-name="Trazado 23" d="M693.359,483.882a.97.97,0,0,1-.262-.72v-.818a5.187,5.187,0,0,1-2.191,1.537,8.273,8.273,0,0,1-3.271.654,9.221,9.221,0,0,1-4.808-1.227,8,8,0,0,1-3.14-3.418,10.957,10.957,0,0,1,.017-9.518A8.375,8.375,0,0,1,682.827,467a9.022,9.022,0,0,1,4.808-1.243,8.1,8.1,0,0,1,3.238.622,5.489,5.489,0,0,1,2.224,1.636v-.883a.905.905,0,0,1,.981-.981h2.878a.905.905,0,0,1,.981.981v16.027a.905.905,0,0,1-.981.981h-2.878A.971.971,0,0,1,693.359,483.882Zm-1.423-12.429a5.284,5.284,0,0,0-7.179,0,5.133,5.133,0,0,0-1.341,3.7,5.033,5.033,0,0,0,1.374,3.647,4.734,4.734,0,0,0,3.565,1.422,4.817,4.817,0,0,0,3.615-1.357,5.787,5.787,0,0,0-.033-7.408Z" transform="translate(-610.51 -459.415)" fill="#13435e"/>
        <path id="Trazado_24" data-name="Trazado 24" d="M783.634,462a.971.971,0,0,1-.262-.72V438.513a.906.906,0,0,1,.981-.981H787.3a.906.906,0,0,1,.981.981v22.765a.905.905,0,0,1-.981.981h-2.944A.971.971,0,0,1,783.634,462Z" transform="translate(-691.724 -437.532)" fill="#13435e"/>
      </g>
      <path id="Trazado_25" data-name="Trazado 25" d="M824.169,483.535a9.534,9.534,0,0,1-3.549-3.418,9.074,9.074,0,0,1,0-9.387,9.629,9.629,0,0,1,3.565-3.435,10.044,10.044,0,0,1,13.378,3.435,8.966,8.966,0,0,1-.016,9.355,10.041,10.041,0,0,1-13.378,3.451Zm2.4-12.527a4.873,4.873,0,0,0-1.8,1.816,5.588,5.588,0,0,0-.016,5.217,4.6,4.6,0,0,0,1.782,1.815,4.879,4.879,0,0,0,6.8-1.832,5.419,5.419,0,0,0,.654-2.617,5.246,5.246,0,0,0-.638-2.568,4.841,4.841,0,0,0-1.783-1.848,4.99,4.99,0,0,0-2.519-.654A4.834,4.834,0,0,0,826.573,471.007Z" transform="translate(-719.586 -459.641)" fill="#13435e"/>
      <rect id="Rectángulo_18" data-name="Rectángulo 18" width="2.1" height="2.133" rx="1.05" transform="matrix(0.722, -0.692, 0.692, 0.722, 41.719, 15.738)" fill="#13435e"/>
      <rect id="Rectángulo_19" data-name="Rectángulo 19" width="2.1" height="2.133" rx="1.05" transform="matrix(0.722, -0.692, 0.692, 0.722, 107.872, 15.738)" fill="#13435e"/>
    </g>
  </g>
</svg>
